<?xml version="1.0" encoding="UTF-8"?>
<svg version="1.1" viewBox="0 0 24 22.02" xmlns="http://www.w3.org/2000/svg">
 <path d="m17.4 0c-2.088 0-4.092 0.972-5.4 2.508-1.308-1.536-3.312-2.508-5.4-2.508-3.696 0-6.6 2.904-6.6 6.6 0 4.536 4.08 8.232 10.26 13.848l1.74 1.572 1.74-1.584c6.18-5.604 10.26-9.3 10.26-13.836 0-3.696-2.904-6.6-6.6-6.6zm-5.28 18.66-0.12001 0.12001-0.12001-0.12001c-5.712-5.172-9.48-8.592-9.48-12.06 0-2.4 1.8-4.2 4.2-4.2 1.848 0 3.648 1.188 4.284 2.832h2.244c0.62399-1.644 2.424-2.832 4.272-2.832 2.4 0 4.2 1.8 4.2 4.2 0 3.468-3.768 6.888-9.48 12.06z" fill="#000" stroke-width=".68812"/>
</svg>
